<svg width="24" height="24" viewBox="0 0 24 24" fill="none" xmlns="http://www.w3.org/2000/svg">
<mask id="mask0_257_2275" style="mask-type:alpha" maskUnits="userSpaceOnUse" x="0" y="0" width="24" height="24">
<rect width="24" height="24" fill="#D9D9D9"/>
</mask>
<g mask="url(#mask0_257_2275)">
<path d="M19.95 15.95L18.4 14.4C19.1333 13.7167 19.7083 12.9083 20.125 11.975C20.5417 11.0417 20.75 10.05 20.75 8.99999C20.75 7.94999 20.5417 6.96665 20.125 6.04999C19.7083 5.13332 19.1333 4.33332 18.4 3.64999L19.95 2.04999C20.8833 2.93332 21.625 3.97499 22.175 5.17499C22.725 6.37499 23 7.64999 23 8.99999C23 10.35 22.725 11.625 22.175 12.825C21.625 14.025 20.8833 15.0667 19.95 15.95ZM16.75 12.75L15.15 11.15C15.45 10.8667 15.6917 10.5458 15.875 10.1875C16.0583 9.82915 16.15 9.43332 16.15 8.99999C16.15 8.56665 16.0583 8.17082 15.875 7.81249C15.6917 7.45415 15.45 7.13332 15.15 6.84999L16.75 5.24999C17.2833 5.73332 17.7 6.29582 18 6.93749C18.3 7.57915 18.45 8.26665 18.45 8.99999C18.45 9.73332 18.3 10.4208 18 11.0625C17.7 11.7042 17.2833 12.2667 16.75 12.75ZM9 13C7.9 13 6.95833 12.6083 6.175 11.825C5.39167 11.0417 5 10.1 5 8.99999C5 7.89999 5.39167 6.95832 6.175 6.17499C6.95833 5.39165 7.9 4.99999 9 4.99999C10.1 4.99999 11.0417 5.39165 11.825 6.17499C12.6083 6.95832 13 7.89999 13 8.99999C13 10.1 12.6083 11.0417 11.825 11.825C11.0417 12.6083 10.1 13 9 13ZM1 21V18.2C1 17.65 1.14167 17.1333 1.425 16.65C1.70833 16.1667 2.1 15.8 2.6 15.55C3.45 15.1167 4.40833 14.75 5.475 14.45C6.54167 14.15 7.71667 14 9 14C10.2833 14 11.4583 14.15 12.525 14.45C13.5917 14.75 14.55 15.1167 15.4 15.55C15.9 15.8 16.2917 16.1667 16.575 16.65C16.8583 17.1333 17 17.65 17 18.2V21H1ZM3 19H15V18.2C15 18.0167 14.9542 17.85 14.8625 17.7C14.7708 17.55 14.65 17.4333 14.5 17.35C13.9 17.05 13.1292 16.75 12.1875 16.45C11.2458 16.15 10.1833 16 9 16C7.81667 16 6.75417 16.15 5.8125 16.45C4.87083 16.75 4.1 17.05 3.5 17.35C3.35 17.4333 3.22917 17.55 3.1375 17.7C3.04583 17.85 3 18.0167 3 18.2V19ZM9 11C9.55 11 10.0208 10.8042 10.4125 10.4125C10.8042 10.0208 11 9.54999 11 8.99999C11 8.44999 10.8042 7.97915 10.4125 7.58749C10.0208 7.19582 9.55 6.99999 9 6.99999C8.45 6.99999 7.97917 7.19582 7.5875 7.58749C7.19583 7.97915 7 8.44999 7 8.99999C7 9.54999 7.19583 10.0208 7.5875 10.4125C7.97917 10.8042 8.45 11 9 11Z" fill="#A2A0A2"/>
</g>
</svg>
